# xmcd CD database file generated by Grip 3.3.1
# 
# Track frame offsets:
#       183
#       25063
#       41903
# 
# Disc length: 814 seconds
# 
# Revision: 2
# Processed by: cddbd v1.5.2PL0 Copyright (c) Steve Scherf et al.
# Submitted via: Grip 3.3.1
# 
DISCID=1e032c03
DTITLE=David Hasselhoff - Flying on the Wings of Tenderness
DYEAR=1989
DGENRE=Pop
TTITLE0=Flying on the Wings of Tenderness (Long Version)
TTITLE1=Flying on the Wings of Tenderness (Radio Version)
TTITLE2=Yesterday's Love
EXTD=YEAR: 2000 ID3G: 17
EXTT0=
EXTT1=
EXTT2=
PLAYORDER=
